<svg width="16" height="16" viewBox="0 0 16 16" fill="none" xmlns="http://www.w3.org/2000/svg">
  <path d="M5.5 2.5C5.5 2.22386 5.72386 2 6 2H10C10.2761 2 10.5 2.22386 10.5 2.5V3H5.5V2.5Z" fill="currentColor"/>
  <path fill-rule="evenodd" clip-rule="evenodd" d="M3.5 3C2.67157 3 2 3.67157 2 4.5V13.5C2 14.3284 2.67157 15 3.5 15H12.5C13.3284 15 14 14.3284 14 13.5V4.5C14 3.67157 13.3284 3 12.5 3H11.5V2.5C11.5 1.67157 10.8284 1 10 1H6C5.17157 1 4.5 1.67157 4.5 2.5V3H3.5ZM12.5 4H11.5V4.5C11.5 4.77614 11.2761 5 11 5H5C4.72386 5 4.5 4.77614 4.5 4.5V4H3.5C3.22386 4 3 4.22386 3 4.5V13.5C3 13.7761 3.22386 14 3.5 14H12.5C12.7761 14 13 13.7761 13 13.5V4.5C13 4.22386 12.7761 4 12.5 4ZM5 7C4.44772 7 4 7.44772 4 8C4 8.55228 4.44772 9 5 9H11C11.5523 9 12 8.55228 12 8C12 7.44772 11.5523 7 11 7H5ZM5 10.5C4.44772 10.5 4 10.9477 4 11.5C4 12.0523 4.44772 12.5 5 12.5H9C9.55228 12.5 10 12.0523 10 11.5C10 10.9477 9.55228 10.5 9 10.5H5Z" fill="currentColor"/>
</svg>
